<?xml version="1.0" encoding="UTF-8"?>
<svg xmlns="http://www.w3.org/2000/svg" xmlns:xlink="http://www.w3.org/1999/xlink" width="60px" height="60px" viewBox="0 0 60 60" version="1.1">
<g id="surface1">
<path style=" stroke:none;fill-rule:nonzero;fill:rgb(100%,100%,100%);fill-opacity:1;" d="M 0 30.003906 L 0 60.007812 L 60.007812 60.007812 L 60.007812 0 L 0 0 Z M 35.070312 16.207031 L 35.070312 21.46875 L 21.929688 21.46875 L 21.929688 24.742188 L 29.792969 24.742188 L 29.792969 35.265625 L 21.929688 35.265625 L 21.921875 42.132812 L 21.910156 49.003906 L 16.351562 49.015625 L 10.792969 49.023438 L 10.792969 10.945312 L 35.070312 10.945312 Z M 48.792969 29.984375 L 48.792969 49.023438 L 43.234375 49.015625 L 37.671875 49.003906 L 37.671875 35.265625 L 29.984375 35.265625 L 29.984375 24.742188 L 37.671875 24.742188 L 37.660156 17.894531 C 37.65625 14.125 37.660156 11.019531 37.671875 10.992188 C 37.683594 10.957031 38.835938 10.945312 43.242188 10.945312 L 48.792969 10.945312 Z M 48.792969 29.984375 "/>
</g>
</svg>
